<svg xmlns="http://www.w3.org/2000/svg" width="120" height="41" viewBox="0 0 120 41" fill="none"><g clip-path="url(#clip0_198_194)"><path d="M8.32399 1.0012C8.14565 1.05158 7.94017 1.26474 7.88977 1.44302C7.87038 1.52828 7.11048 4.91945 6.20326 8.98109C5.29603 13.0427 3.53198 20.9412 2.2797 26.5376L0.00387703 36.7111L0 37.1956C0 37.556 0.0155081 37.7382 0.0697866 37.9126C0.414843 39.0559 1.48103 39.7961 2.78371 39.7922C3.57463 39.7884 4.26086 39.4977 4.84242 38.9202C5.18747 38.5753 5.38132 38.2497 5.51314 37.7963C5.55967 37.6451 6.6685 32.4479 7.98669 26.247C9.30101 20.0421 10.3866 14.9573 10.4021 14.9418C10.4176 14.9263 10.7433 15.5619 11.131 16.3564C18.2182 30.8667 22.5566 39.707 22.6225 39.7612C22.7388 39.8581 22.9986 39.8542 23.1032 39.7535C23.1498 39.7109 25.8986 34.1028 29.2135 27.2934C32.5244 20.4839 35.25 14.9263 35.2616 14.9418C35.2888 14.9728 36.6535 21.3831 36.6535 21.48C36.6535 21.511 36.6263 21.5381 36.5953 21.5381C36.5643 21.5381 36.4635 21.573 36.3743 21.6156C36.2813 21.6544 36.0874 21.7357 35.9362 21.79C35.6067 21.914 35.4128 21.9954 35.3353 22.0419C35.3043 22.0613 35.1686 22.1388 35.0368 22.2163C34.9011 22.2938 34.6684 22.4605 34.5211 22.5923C34.1489 22.9101 33.5906 23.6077 33.5906 23.7511C33.5906 23.7821 33.5674 23.8402 33.5402 23.8828C33.4394 24.0262 33.2843 24.5417 33.2262 24.9099C33.137 25.468 33.1138 26.0764 33.1603 26.6151C33.1835 26.8826 33.2184 27.3864 33.2417 27.7391C33.2611 28.0918 33.3076 28.7971 33.3386 29.3087C33.3696 29.8203 33.4123 30.5877 33.4355 31.014C33.4549 31.4403 33.4976 32.1534 33.5286 32.603C33.5596 33.0487 33.5984 33.7463 33.61 34.1532C33.6216 34.5563 33.641 34.9477 33.6527 35.0136C33.6759 35.1648 33.7884 35.2423 33.9008 35.1803C34.0055 35.126 34.0481 34.9283 34.0946 34.3431C34.114 34.068 34.1489 33.7036 34.1722 33.5331C34.1954 33.3626 34.2381 32.9789 34.2691 32.6805C34.3234 32.1301 34.3738 31.7348 34.5405 30.452C34.8972 27.7546 35.2461 26.1462 35.6765 25.2587C35.8626 24.875 36.2697 24.4642 36.7465 24.1813C37.1265 23.9603 37.1808 23.9448 37.2118 24.0456C37.2195 24.0844 37.8786 27.1655 38.6695 30.8977C39.4605 34.626 40.1351 37.7653 40.17 37.8738C40.294 38.273 40.4995 38.5985 40.8213 38.9202C41.4029 39.4977 42.0891 39.7884 42.88 39.7922C44.2215 39.7961 45.307 39.0132 45.6094 37.8312C45.7723 37.2033 45.8498 37.6335 44.0625 29.4909C43.1669 25.4253 42.4303 22.0574 42.4225 22.007C42.4109 21.9024 42.4496 21.883 43.3995 21.5187C43.9617 21.3017 44.0237 21.2513 44.5045 20.5886C44.6712 20.3521 44.8728 20.0731 44.9503 19.9685C45.0279 19.8599 45.4388 19.2864 45.8614 18.6895C46.284 18.0927 46.757 17.4299 46.9082 17.2168C47.2843 16.6897 47.9046 15.8177 48.7111 14.6782C50.1494 12.6435 50.4751 12.2599 51.0567 11.9072C51.1807 11.8335 51.3862 11.7405 51.518 11.694C52.022 11.5274 52.3942 11.5041 55.1818 11.4615C56.6435 11.4382 58.8883 11.4034 60.1677 11.384C61.4471 11.3607 63.7152 11.3258 65.2078 11.3065C66.7005 11.2832 68.7514 11.2483 69.7634 11.229C70.7753 11.2057 73.0278 11.1708 74.7647 11.1514C76.5016 11.1321 78.7968 11.0972 79.863 11.0739C83.3601 11.0042 86.0973 10.9577 89.0322 10.9189C90.6218 10.8995 92.9403 10.8646 94.1887 10.8414C95.4371 10.822 97.4958 10.7833 98.7636 10.7639C100.031 10.7406 102.249 10.7057 103.687 10.6864C108.173 10.6205 111.325 10.5662 112.837 10.5313C113.636 10.512 115.094 10.4926 116.075 10.4887C117.055 10.4887 118.141 10.4732 118.486 10.4616C119.161 10.4344 119.254 10.4034 119.211 10.2329C119.188 10.1554 119.161 10.1515 118.525 10.1283C118.157 10.1128 116.051 10.0779 113.845 10.0469C106.634 9.94225 104.664 9.91124 102.893 9.87248C99.7561 9.8066 98.938 9.7911 95.7007 9.75622C93.9405 9.73684 91.7965 9.70196 90.932 9.6787C90.0674 9.65545 87.7993 9.62057 85.8918 9.60119C83.9843 9.58181 81.6891 9.54693 80.7935 9.52368C79.8979 9.5043 77.7772 9.46942 76.0829 9.44617C74.3887 9.42291 72.3222 9.38803 71.4886 9.36865C70.659 9.34928 68.8871 9.32215 67.5534 9.31052C66.2197 9.29889 64.4402 9.27176 63.5989 9.25239C59.8769 9.16325 57.5933 9.13224 54.6817 9.12449L51.5607 9.11674L51.2311 9.20588C50.4286 9.42291 50.1262 9.54693 49.6415 9.86861C49.2849 10.105 48.7033 10.6592 48.3582 11.0933C48.1489 11.3607 47.5247 12.2172 47.451 12.3451C47.4316 12.38 47.3502 12.4924 47.2766 12.5932C47.2029 12.6901 47.0788 12.8606 47.0052 12.973C46.9315 13.0815 46.7687 13.3102 46.6407 13.4846C46.4275 13.783 46.001 14.3837 45.7451 14.748C45.6831 14.841 45.528 15.0581 45.4039 15.2325C45.2799 15.4069 45.086 15.6782 44.9775 15.8371C44.7487 16.1626 44.6634 16.2789 44.4463 16.5773C44.3572 16.6936 44.2253 16.8873 44.1439 17.0036C44.0664 17.1199 43.9307 17.3137 43.8454 17.4299C43.6089 17.7439 43.101 18.457 42.8916 18.767C42.6551 19.112 42.5311 19.2243 42.314 19.3019C42.217 19.3329 42.0736 19.3871 41.996 19.422C41.9146 19.4569 41.8487 19.4763 41.8487 19.4608C41.8487 19.3522 37.8747 1.41589 37.8282 1.319C37.7197 1.08259 37.4522 0.958569 37.0644 0.958569C36.8124 0.958569 36.4984 1.07484 36.3743 1.21436C36.3278 1.27249 25.6156 23.1193 23.6034 27.2701C23.3824 27.7274 23.1924 28.0918 23.1847 28.084C23.1769 28.0763 21.8665 25.5222 20.273 22.4101C18.6796 19.298 16.1905 14.4302 14.7366 11.5971C13.2866 8.76018 11.5187 5.30701 10.813 3.92341C9.42507 1.20661 9.36304 1.10584 9.02574 1.00507C8.83964 0.950817 8.50621 0.950817 8.32399 1.0012Z" fill="white"></path><path d="M105.742 15.1628C105.067 15.3139 104.393 15.8333 104.102 16.4224C103.823 16.9843 103.842 16.1549 103.842 27.5105C103.842 37.5251 103.842 37.7731 103.916 38.056C104.137 38.9203 104.773 39.5249 105.703 39.7574C106.013 39.8349 106.82 39.8272 107.138 39.7419C107.859 39.5482 108.479 39.0559 108.762 38.4591C108.991 37.9669 108.975 38.4824 108.999 30.9172L109.018 23.9992L109.123 23.6698C109.258 23.2396 109.433 22.821 109.599 22.5226C110.317 21.2397 111.736 20.205 113.174 19.9143C114.155 19.7127 115.465 19.8058 116.52 20.1468C116.912 20.2747 117.578 20.2902 117.997 20.1856C118.501 20.0616 118.776 19.9027 119.16 19.5228C119.653 19.0306 119.831 18.6043 119.831 17.9145C119.827 17.2789 119.649 16.8642 119.18 16.3991C118.742 15.965 118.369 15.7829 117.45 15.5542C116.473 15.3062 116.233 15.279 115.008 15.279C113.837 15.279 113.434 15.3217 112.624 15.531C111.968 15.7015 111.554 15.8565 110.918 16.1704C110.239 16.5076 109.817 16.8099 109.336 17.3099C109.15 17.5036 108.991 17.6625 108.983 17.6625C108.975 17.6625 108.96 17.4998 108.952 17.3021C108.925 16.8797 108.832 16.5929 108.588 16.2247C108.285 15.7635 107.812 15.4069 107.277 15.2364C106.882 15.1085 106.141 15.0736 105.742 15.1628Z" fill="white"></path><path d="M52.2389 15.5852C51.2657 15.7906 50.5446 16.4805 50.3585 17.3835C50.3042 17.6316 50.3004 18.5152 50.312 24.4953C50.3236 31.8977 50.312 31.4753 50.533 32.5449C50.6532 33.1301 50.9556 34.0138 51.2231 34.568C52.1342 36.4632 53.5416 37.8933 55.4452 38.8544C56.5618 39.4164 57.6202 39.7419 59.0353 39.9551C59.5044 40.0287 59.7603 40.0404 60.7877 40.0404C61.8617 40.0442 62.0555 40.0326 62.5906 39.9512C66.1303 39.4125 68.7706 37.6259 70.2361 34.7734C70.837 33.603 71.1588 32.4752 71.2751 31.1497C71.2984 30.8745 71.3139 28.2004 71.3139 24.1736C71.3139 18.6547 71.3023 17.6044 71.2557 17.3796C71.0851 16.5774 70.3718 15.8643 69.4917 15.624C69.0962 15.5155 68.2821 15.5232 67.9021 15.6395C67.4524 15.7829 67.1771 15.9457 66.8514 16.2712C66.5374 16.5813 66.3319 16.9301 66.2311 17.3331C66.1923 17.4843 66.1768 19.05 66.1574 24.3674C66.1342 30.7156 66.1303 31.2272 66.0644 31.4985C65.824 32.5294 65.4208 33.3007 64.7695 33.9828C64.3314 34.444 64.0212 34.6726 63.4629 34.9478C61.8345 35.7501 59.6401 35.7152 58.0544 34.8625C56.7324 34.1572 55.9027 33.0604 55.5654 31.5838L55.4801 31.2078L55.4568 24.3674C55.4374 18.0269 55.4297 17.5114 55.3677 17.2983C55.1312 16.496 54.4527 15.8488 53.6152 15.624C53.2973 15.5387 52.5568 15.5194 52.2389 15.5852Z" fill="white"></path><path d="M77.4861 15.7245C76.986 15.8563 76.7185 16.0152 76.3346 16.4028C76.0555 16.6818 75.9508 16.8175 75.819 17.081C75.4778 17.7592 75.4584 18.4413 75.7686 19.077C75.85 19.2475 78.2538 23.8013 81.1111 29.2001C84.3872 35.3817 86.3761 39.0984 86.4925 39.2495C86.8104 39.6642 87.1283 39.8037 87.7525 39.8076C88.5085 39.8076 88.8226 39.5983 89.3111 38.7845C89.5592 38.3698 91.6334 34.3081 95.2158 27.2351C96.9953 23.7199 98.329 21.1116 98.9843 19.8598C99.4766 18.9219 99.527 18.8018 99.5774 18.4413C99.748 17.2438 98.8214 15.9803 97.5769 15.7013C97.1814 15.616 96.4642 15.6432 96.0493 15.7633C95.3398 15.9648 94.7544 16.3718 94.5063 16.8368C94.4443 16.9609 92.94 20.1737 91.1643 23.9796C89.3925 27.7855 87.927 30.9092 87.9153 30.9247C87.8998 30.9363 86.8995 29.0179 85.686 26.6615C84.4764 24.3013 82.8364 21.1078 82.0416 19.5614L80.5994 16.7516L80.3086 16.457C80.0682 16.2129 79.9519 16.1276 79.6495 15.9842C79.1338 15.7362 78.9051 15.6819 78.2925 15.6625C77.8583 15.6509 77.7226 15.6587 77.4861 15.7245Z" fill="white"></path></g><defs><clipPath id="clip0_198_194"><rect width="119.831" height="39.0824" fill="white" transform="matrix(1 0 0 -1 0 40.041)"></rect></clipPath></defs></svg>